<svg width="168" height="56" viewBox="0 0 168 56" fill="none" xmlns="http://www.w3.org/2000/svg">
<rect width="168" height="56" rx="5" fill="white"/>
<path fill-rule="evenodd" clip-rule="evenodd" d="M62.862 35.8876H56.9343L55.5107 40.1746H53L58.6146 24.3139H61.2232L66.8379 40.1746H64.2843L62.862 35.8876ZM57.5482 33.9094H62.2469L59.9306 26.952H59.8658L57.5482 33.9094ZM78.9636 34.3933C78.9636 37.9868 77.0778 40.2955 74.232 40.2955C72.761 40.374 71.3754 39.5882 70.6646 38.2724H70.6107V44H68.2834V28.6109H70.5362V30.5342H70.579C71.3214 29.2266 72.7084 28.4412 74.1892 28.4899C77.0668 28.4899 78.9636 30.8099 78.9636 34.3933ZM76.5715 34.3933C76.5715 32.0522 75.3852 30.513 73.5752 30.513C71.797 30.513 70.601 32.0846 70.601 34.3933C70.601 36.7233 71.797 38.2837 73.5752 38.2837C75.3852 38.2837 76.5715 36.7557 76.5715 34.3933ZM91.4428 34.3933C91.4428 37.9868 89.557 40.2955 86.7112 40.2955C85.2402 40.374 83.8546 39.5882 83.1438 38.2724H83.0899V44H80.7626V28.6109H83.0153V30.5342H83.0581C83.8005 29.2266 85.1876 28.4412 86.6683 28.4899C89.546 28.4899 91.4428 30.8099 91.4428 34.3933ZM89.0507 34.3933C89.0507 32.0522 87.8644 30.513 86.0544 30.513C84.2762 30.513 83.0802 32.0846 83.0802 34.3933C83.0802 36.7233 84.2762 38.2837 86.0544 38.2837C87.8644 38.2837 89.0507 36.7557 89.0507 34.3933ZM99.6906 35.7554C99.863 37.3282 101.361 38.3609 103.408 38.3609C105.37 38.3609 106.781 37.3282 106.781 35.91C106.781 34.6789 105.93 33.9418 103.915 33.4366L101.899 32.9414C99.0436 32.238 97.7179 30.8759 97.7179 28.6657C97.7179 25.9291 100.056 24.0494 103.377 24.0494C106.663 24.0494 108.915 25.9291 108.991 28.6657H106.642C106.501 27.0829 105.218 26.1275 103.344 26.1275C101.469 26.1275 100.186 27.0941 100.186 28.5011C100.186 29.6224 101.005 30.2822 103.01 30.7873L104.723 31.2164C107.914 31.986 109.239 33.2932 109.239 35.6131C109.239 38.5804 106.922 40.4389 103.236 40.4389C99.7871 40.4389 97.4586 38.6241 97.3082 35.7553L99.6906 35.7554ZM114.262 25.8743V28.6109H116.418V30.4905H114.262V36.8655C114.262 37.8558 114.694 38.3173 115.642 38.3173C115.898 38.3128 116.153 38.2944 116.407 38.2624V40.1309C115.981 40.2121 115.548 40.2488 115.115 40.2406C112.819 40.2406 111.924 39.3613 111.924 37.1186V30.4905H110.275V28.6109H111.924V25.8743H114.262ZM117.667 34.3933C117.667 30.755 119.768 28.4687 123.044 28.4687C126.332 28.4687 128.423 30.7549 128.423 34.3933C128.423 38.0417 126.343 40.318 123.044 40.318C119.747 40.318 117.667 38.0417 117.667 34.3933ZM126.052 34.3933C126.052 31.8975 124.93 30.4245 123.044 30.4245C121.159 30.4245 120.038 31.9087 120.038 34.3933C120.038 36.8992 121.159 38.361 123.044 38.361C124.93 38.361 126.052 36.8992 126.052 34.3933ZM130.342 28.6109H132.562V30.5791H132.615C132.925 29.3121 134.063 28.44 135.343 28.4899C135.611 28.4889 135.878 28.5186 136.14 28.5784V30.7986C135.801 30.6931 135.448 30.6446 135.094 30.6552C134.41 30.6269 133.748 30.905 133.282 31.4165C132.815 31.928 132.592 32.6217 132.669 33.3157V40.1745H130.342L130.342 28.6109ZM146.87 36.7782C146.557 38.8774 144.553 40.318 141.988 40.318C138.69 40.318 136.643 38.0641 136.643 34.4482C136.643 30.8211 138.701 28.4687 141.89 28.4687C145.027 28.4687 147 30.6664 147 34.1726V34.9858H138.992V35.1292C138.917 35.9901 139.209 36.8423 139.792 37.469C140.376 38.0956 141.195 38.4364 142.042 38.4046C143.171 38.5126 144.236 37.8511 144.66 36.7782L146.87 36.7782ZM139.003 33.3269L144.671 33.3269C144.714 32.5533 144.438 31.7969 143.91 31.2397C143.382 30.6826 142.65 30.3754 141.89 30.392C141.125 30.3874 140.389 30.6947 139.847 31.2459C139.305 31.797 139.001 32.5462 139.003 33.3269ZM57.2565 12.3755C58.2445 12.3032 59.2123 12.6866 59.8934 13.4201C60.5745 14.1537 60.8971 15.1601 60.7726 16.1623C60.7726 18.597 59.4823 19.9965 57.2565 19.9965H54.5574V12.3755H57.2565ZM55.718 18.9188H57.1269C57.833 18.9618 58.5205 18.6781 58.9985 18.1464C59.4766 17.6146 59.6943 16.8915 59.5912 16.1778C59.6868 15.4671 59.466 14.7499 58.9891 14.2226C58.5122 13.6952 57.8292 13.4127 57.1269 13.4525H55.718V18.9188ZM62.0836 17.1183C61.9869 16.0874 62.4716 15.0898 63.3343 14.5437C64.1971 13.9977 65.2888 13.9977 66.1515 14.5437C67.0143 15.0898 67.499 16.0874 67.4023 17.1183C67.5008 18.1503 67.0166 19.1499 66.1531 19.6971C65.2895 20.2443 64.1963 20.2443 63.3328 19.6971C62.4693 19.1499 61.985 18.1503 62.0836 17.1183ZM66.2576 17.1183C66.2576 15.8716 65.7085 15.1426 64.7448 15.1426C63.7774 15.1426 63.2332 15.8716 63.2332 17.1183C63.2332 18.375 63.7774 19.0984 64.7448 19.0984C65.7085 19.0984 66.2576 18.37 66.2576 17.1183ZM74.4723 19.9964H73.3178L72.1523 15.7606H72.0643L70.9037 19.9964H69.7602L68.2058 14.2451H69.3346L70.3448 18.6337H70.4279L71.5873 14.2451H72.655L73.8143 18.6337H73.9024L74.9077 14.2451H76.0206L74.4723 19.9964ZM77.3279 14.2451H78.3992V15.1588H78.4824C78.7716 14.4861 79.4474 14.0746 80.1652 14.1341C80.721 14.0915 81.2657 14.309 81.6454 14.7251C82.0251 15.1412 82.1987 15.7109 82.1171 16.2732V19.9964H81.0042V16.5583C81.0042 15.634 80.6104 15.1744 79.7873 15.1744C79.4103 15.1565 79.0445 15.3074 78.7856 15.5875C78.5268 15.8676 78.4009 16.2491 78.4408 16.6318V19.9964H77.3279L77.3279 14.2451ZM83.8904 12H85.0033V19.9964H83.8904V12ZM86.5503 17.1183C86.4537 16.0874 86.9385 15.0897 87.8013 14.5436C88.6641 13.9976 89.7559 13.9976 90.6187 14.5436C91.4815 15.0897 91.9663 16.0874 91.8697 17.1183C91.9681 18.1503 91.4837 19.1499 90.6202 19.6971C89.7566 20.2443 88.6634 20.2443 87.7998 19.6971C86.9362 19.1499 86.4519 18.1503 86.5503 17.1183ZM90.7243 17.1183C90.7243 15.8716 90.1752 15.1426 89.2115 15.1426C88.2442 15.1426 87.7 15.8716 87.7 17.1183C87.7 18.375 88.2442 19.0984 89.2115 19.0984C90.1752 19.0984 90.7243 18.37 90.7243 17.1183ZM93.0413 18.37C93.0413 17.3347 93.7971 16.7379 95.1387 16.6531L96.6662 16.5633V16.0668C96.6662 15.4594 96.2724 15.1164 95.5117 15.1164C94.8904 15.1164 94.4599 15.349 94.3364 15.7556H93.259C93.3727 14.7678 94.2838 14.1342 95.563 14.1342C96.9768 14.1342 97.7742 14.852 97.7742 16.0668V19.9964H96.7028V19.1882H96.6148C96.2509 19.7784 95.6039 20.1234 94.921 20.0912C94.4423 20.142 93.9648 19.9839 93.6067 19.6559C93.2486 19.328 93.0432 18.8608 93.0413 18.37ZM96.6662 17.8785V17.3977L95.2891 17.4875C94.5125 17.5405 94.1603 17.8099 94.1603 18.3169C94.1603 18.8346 94.6005 19.1358 95.206 19.1358C95.5644 19.1728 95.9221 19.0599 96.1974 18.8229C96.4726 18.5859 96.6418 18.2451 96.6662 17.8785ZM99.2368 17.1183C99.2368 15.301 100.153 14.1497 101.578 14.1497C102.297 14.1159 102.971 14.5091 103.307 15.1587H103.39V12H104.503V19.9964H103.437V19.0878H103.348C102.987 19.732 102.305 20.1185 101.578 20.0912C100.143 20.0913 99.2368 18.94 99.2368 17.1183ZM100.386 17.1183C100.386 18.3382 100.95 19.0722 101.893 19.0722C102.831 19.0722 103.411 18.3276 103.411 17.1233C103.411 15.9246 102.825 15.1694 101.893 15.1694C100.956 15.1694 100.386 15.9084 100.386 17.1183ZM109.107 17.1183C109.011 16.0874 109.495 15.0898 110.358 14.5437C111.221 13.9977 112.313 13.9977 113.175 14.5437C114.038 15.0898 114.523 16.0874 114.426 17.1183C114.525 18.1503 114.04 19.1499 113.177 19.6971C112.313 20.2443 111.22 20.2443 110.357 19.6971C109.493 19.1499 109.009 18.1503 109.107 17.1183ZM113.281 17.1183C113.281 15.8716 112.732 15.1426 111.769 15.1426C110.801 15.1426 110.257 15.8716 110.257 17.1183C110.257 18.375 110.801 19.0984 111.769 19.0984C112.732 19.0984 113.281 18.37 113.281 17.1183ZM115.919 14.2451H116.991V15.1588H117.074C117.363 14.4861 118.039 14.0746 118.757 14.1341C119.312 14.0915 119.857 14.309 120.237 14.7251C120.617 15.1412 120.79 15.7109 120.709 16.2732V19.9964H119.596V16.5583C119.596 15.634 119.202 15.1744 118.379 15.1744C118.002 15.1565 117.636 15.3074 117.377 15.5875C117.118 15.8676 116.992 16.2491 117.032 16.6318V19.9964H115.919V14.2451ZM126.997 12.8133V14.2713H128.219V15.2274H126.997V18.1847C126.997 18.7872 127.24 19.051 127.794 19.051C127.936 19.0505 128.078 19.0418 128.219 19.0248V19.9702C128.019 20.0067 127.816 20.0261 127.613 20.0282C126.376 20.0282 125.883 19.5842 125.883 18.4753V15.2273H124.988V14.2713H125.883V12.8133H126.997ZM129.739 12H130.842V15.1694H130.93C131.233 14.4908 131.921 14.0788 132.65 14.1391C133.202 14.1084 133.739 14.3307 134.115 14.7453C134.491 15.16 134.665 15.7238 134.592 16.2832V19.9964H133.478V16.5632C133.478 15.6446 133.058 15.1793 132.272 15.1793C131.885 15.147 131.503 15.2905 131.229 15.5716C130.956 15.8528 130.817 16.2428 130.852 16.6374V19.9964H129.739L129.739 12ZM141.081 18.4435C140.769 19.5284 139.739 20.2293 138.637 20.1074C137.885 20.1277 137.163 19.8098 136.661 19.2381C136.159 18.6665 135.93 17.8988 136.032 17.1389C135.932 16.3768 136.161 15.6079 136.66 15.0314C137.159 14.455 137.879 14.1276 138.632 14.1341C140.201 14.1341 141.148 15.2274 141.148 17.0335V17.4295H137.166V17.4931C137.131 17.9199 137.274 18.342 137.56 18.6557C137.846 18.9694 138.248 19.1455 138.668 19.1407C139.212 19.2074 139.742 18.932 140.009 18.4435L141.081 18.4435ZM137.166 16.5901H140.014C140.043 16.1997 139.908 15.8154 139.644 15.5316C139.379 15.2479 139.01 15.0912 138.626 15.1002C138.237 15.0952 137.863 15.2506 137.588 15.5311C137.313 15.8116 137.161 16.1935 137.166 16.5901ZM40.3136 28.1667C40.3165 30.8461 41.9255 33.2643 44.4 34.308C43.9241 35.8499 43.2067 37.3069 42.2745 38.6253C41.0225 40.493 39.7098 42.3178 37.6263 42.3515C35.6019 42.3981 34.9216 41.1633 32.5996 41.1633C30.2559 41.1633 29.5307 42.3178 27.5891 42.3981C25.6049 42.4714 24.0885 40.4046 22.791 38.5544C20.1977 34.7759 18.1783 27.9059 20.8856 23.2314C22.1568 20.9531 24.5338 19.5074 27.1468 19.4232C29.1328 19.3825 30.9771 20.7608 32.1981 20.7608C33.3959 20.7608 35.6748 19.112 38.0254 19.358C40.2597 19.4278 42.3302 20.5441 43.6123 22.3702C41.5891 23.6107 40.3442 25.7983 40.3136 28.1667ZM36.4898 16.873C35.3876 18.2401 33.7177 19.0275 31.9589 19.0095C31.847 17.2954 32.423 15.6072 33.5599 14.3169C34.7112 13.009 36.3144 12.1818 38.0499 12C38.1854 13.7649 37.6258 15.513 36.4898 16.873Z" fill="#232632"/>
</svg>
